<svg xmlns="http://www.w3.org/2000/svg" viewBox="0 0 32 32" width="32" height="32">
  <defs>
    <!-- Gradiente para el círculo principal -->
    <radialGradient id="circleGradient" cx="0.3" cy="0.3" r="0.8">
      <stop offset="0%" stop-color="#ff4757"/>
      <stop offset="100%" stop-color="#dc3545"/>
    </radialGradient>
    
    <!-- Sombra suave -->
    <filter id="shadow" x="-50%" y="-50%" width="200%" height="200%">
      <feDropShadow dx="1" dy="1" stdDeviation="1" flood-color="#000000" flood-opacity="0.3"/>
    </filter>
  </defs>
  
  <!-- Círculo principal con gradiente -->
  <circle cx="16" cy="16" r="14" 
          fill="url(#circleGradient)" 
          filter="url(#shadow)"/>
  
  <!-- Letra "D" estilizada y moderna -->
  <path d="M 8 9 L 8 23 L 16 23 C 21 23 24 20 24 16 C 24 12 21 9 16 9 Z M 11 12 L 16 12 C 19 12 21 13.5 21 16 C 21 18.5 19 20 16 20 L 11 20 Z" 
        fill="#ffffff" 
        stroke="none"/>
  
  <!-- Elemento decorativo - líneas que representan crecimiento -->
  <g stroke="#ffffff" stroke-width="1.5" stroke-linecap="round">
    <line x1="25" y1="12" x2="27" y2="10"/>
    <line x1="26" y1="16" x2="28" y2="14"/>
    <line x1="25" y1="20" x2="27" y2="18"/>
  </g>
  
  <!-- Punto decorativo -->
  <circle cx="29" cy="16" r="1.5" fill="#ffffff" opacity="0.8"/>
</svg> 