<svg xmlns="http://www.w3.org/2000/svg" viewBox="0 0 180 180" width="180" height="180">
  <defs>
    <radialGradient id="appleGrad" cx="0.3" cy="0.3" r="0.8">
      <stop offset="0%" stop-color="#ff4757"/>
      <stop offset="100%" stop-color="#dc3545"/>
    </radialGradient>
    
    <!-- Sombra para profundidad -->
    <filter id="appleShadow" x="-50%" y="-50%" width="200%" height="200%">
      <feDropShadow dx="2" dy="2" stdDeviation="3" flood-color="#000000" flood-opacity="0.3"/>
    </filter>
  </defs>
  
  <!-- Fondo con esquinas redondeadas (estilo iOS) -->
  <rect x="10" y="10" width="160" height="160" rx="35" ry="35" 
        fill="url(#appleGrad)" 
        filter="url(#appleShadow)"/>
  
  <!-- Letra "D" grande y clara -->
  <path d="M 50 50 L 50 130 L 90 130 C 115 130 135 110 135 90 C 135 70 115 50 90 50 Z M 65 65 L 90 65 C 105 65 120 75 120 90 C 120 105 105 115 90 115 L 65 115 Z" 
        fill="#ffffff"/>
  
  <!-- Elementos decorativos más grandes -->
  <g stroke="#ffffff" stroke-width="4" stroke-linecap="round">
    <line x1="140" y1="70" x2="150" y2="60"/>
    <line x1="145" y1="90" x2="155" y2="80"/>
    <line x1="140" y1="110" x2="150" y2="100"/>
  </g>
  
  <!-- Punto decorativo -->
  <circle cx="160" cy="90" r="6" fill="#ffffff" opacity="0.8"/>
</svg> 