<svg xmlns="http://www.w3.org/2000/svg" viewBox="0 0 400 400" width="400" height="400">
  <defs>
    <!-- Gradiente para el logo -->
    <radialGradient id="avatarGrad" cx="0.3" cy="0.3" r="0.8">
      <stop offset="0%" stop-color="#ff4757"/>
      <stop offset="100%" stop-color="#dc3545"/>
    </radialGradient>
    
    <!-- Sombra -->
    <filter id="avatarShadow" x="-50%" y="-50%" width="200%" height="200%">
      <feDropShadow dx="3" dy="3" stdDeviation="5" flood-color="#000000" flood-opacity="0.25"/>
    </filter>
  </defs>
  
  <!-- Fondo blanco -->
  <rect width="400" height="400" fill="#ffffff"/>
  
  <!-- Logo centrado -->
  <g transform="translate(200, 200)">
    <!-- Círculo del logo -->
    <circle cx="0" cy="0" r="180" 
            fill="url(#avatarGrad)" 
            filter="url(#avatarShadow)"/>
    
    <!-- Letra "D" -->
    <path d="M -90 -90 L -90 90 L 0 90 C 90 90 150 30 150 0 C 150 -30 90 -90 0 -90 Z M -50 -50 L 0 -50 C 50 -50 100 -25 100 0 C 100 25 50 50 0 50 L -50 50 Z" 
          fill="#ffffff"/>
    
    <!-- Elementos decorativos -->
    <g stroke="#ffffff" stroke-width="8" stroke-linecap="round">
      <line x1="120" y1="-60" x2="150" y2="-90"/>
      <line x1="135" y1="0" x2="165" y2="-30"/>
      <line x1="120" y1="60" x2="150" y2="30"/>
    </g>
    
    <!-- Punto decorativo -->
    <circle cx="170" cy="0" r="8" fill="#ffffff" opacity="0.8"/>
  </g>
</svg> 